<?xml version="1.0" standalone="no"?>
<!DOCTYPE svg PUBLIC "-//W3C//DTD SVG 20010904//EN"
 "http://www.w3.org/TR/2001/REC-SVG-20010904/DTD/svg10.dtd">
<svg version="1.0" xmlns="http://www.w3.org/2000/svg"
 width="1089.000000pt" height="214.000000pt" viewBox="0 0 1089.000000 214.000000"
 preserveAspectRatio="xMidYMid meet">

<g transform="translate(0.000000,214.000000) scale(0.100000,-0.100000)"
fill="#000000" stroke="none">
<path d="M5260 1571 c-101 -21 -154 -84 -130 -156 8 -25 8 -39 0 -55 -9 -17
-8 -25 3 -38 9 -9 19 -34 23 -56 4 -25 13 -40 25 -43 24 -7 24 -17 0 -40 -10
-10 -21 -37 -24 -59 -2 -23 -14 -51 -25 -62 l-20 -20 -19 81 c-14 58 -17 91
-11 112 12 40 0 175 -17 192 -28 28 -95 8 -95 -28 0 -17 -5 -20 -27 -15 -25 5
-219 10 -265 7 -15 -1 -18 -11 -18 -60 0 -70 6 -74 98 -71 96 4 142 0 142 -10
0 -5 -13 -10 -28 -10 -17 0 -38 -10 -51 -24 -20 -21 -21 -27 -9 -45 11 -17 10
-25 -5 -51 -10 -17 -20 -52 -22 -78 -3 -33 -33 -111 -105 -267 -56 -121 -108
-227 -115 -235 -16 -17 -49 -92 -59 -133 -12 -50 23 -28 63 38 l36 60 95 22
c52 12 110 22 128 22 29 1 32 -2 32 -29 0 -20 5 -30 15 -30 8 0 31 -11 51 -25
47 -32 108 -48 156 -42 35 5 38 3 50 -29 9 -25 18 -34 34 -34 18 0 21 4 17 21
-6 22 -6 22 26 -2 26 -19 44 -24 94 -24 118 1 207 12 225 28 13 12 32 14 84
10 43 -4 78 -1 97 7 39 16 77 66 83 110 7 44 -10 260 -21 274 -4 6 -13 37 -20
69 -9 41 -29 82 -72 145 -32 48 -59 92 -59 98 0 5 -20 25 -45 44 -38 28 -45
39 -45 67 0 26 -5 36 -23 42 -12 5 -28 20 -35 33 -12 21 -11 29 9 62 27 46 28
119 1 156 -24 33 -117 80 -156 79 -17 -1 -47 -4 -66 -8z m-277 -345 c15 -37
18 -63 13 -143 -3 -54 -5 -109 -6 -123 -1 -37 -17 -7 -31 58 -6 29 -17 56 -25
59 -19 7 -18 33 2 33 25 0 14 55 -11 56 -56 3 -65 5 -65 15 0 6 17 9 43 7 l42
-3 -3 43 c-5 57 17 56 41 -2z m-124 -430 l2 -224 -73 -17 c-126 -27 -178 -33
-178 -20 0 15 185 419 212 463 11 17 23 30 28 27 4 -3 9 -106 9 -229z m282
201 c-8 -8 -11 -7 -11 4 0 20 13 34 18 19 3 -7 -1 -17 -7 -23z m-183 -104 c21
-61 24 -174 5 -180 -6 -2 -13 18 -17 44 -11 92 -19 193 -14 193 3 0 14 -26 26
-57z m191 -68 l65 0 18 -40 c17 -39 23 -77 13 -87 -3 -3 -46 7 -96 21 l-92 27
-1 47 c-1 39 2 46 14 40 8 -4 44 -8 79 -8z m-224 -189 c6 -55 5 -68 -6 -64
-11 3 -14 30 -16 104 -2 108 10 88 22 -40z m90 -50 c20 -15 19 -15 -5 -16 -28
0 -50 16 -50 37 0 15 17 8 55 -21z"/>
<path d="M3008 1270 l-3 -240 -48 34 c-127 90 -325 69 -442 -49 -145 -144
-158 -406 -28 -570 116 -146 345 -176 486 -64 l38 31 16 -41 16 -41 64 0 63 0
0 590 0 590 -80 0 -80 0 -2 -240z m-157 -300 c95 -26 147 -101 156 -224 14
-178 -79 -296 -233 -296 -123 0 -237 151 -221 292 20 167 152 268 298 228z"/>
<path d="M250 900 l0 -570 85 0 85 0 2 433 3 434 163 -224 163 -223 67 0 67 0
165 228 165 227 3 -437 2 -438 85 0 85 0 0 570 0 570 -89 0 -89 0 -191 -265
c-106 -145 -196 -267 -200 -270 -5 -2 -96 116 -203 263 l-194 267 -87 3 -87 3
0 -571z"/>
<path d="M3379 1441 c-49 -49 -38 -125 23 -157 79 -41 166 35 138 120 -23 70
-108 89 -161 37z"/>
<path d="M5870 900 l0 -570 345 0 345 0 0 80 0 80 -265 0 -265 0 0 490 0 490
-80 0 -80 0 0 -570z"/>
<path d="M1815 1107 c-127 -43 -211 -127 -255 -258 -18 -52 -21 -81 -18 -155
3 -78 9 -101 36 -156 80 -163 264 -253 447 -219 71 13 171 60 205 96 l24 26
-46 46 -46 46 -35 -28 c-93 -70 -234 -72 -327 -3 -37 27 -90 104 -90 130 0 17
16 18 286 18 l286 0 -7 63 c-28 261 -142 395 -343 404 -46 2 -93 -3 -117 -10z
m206 -161 c38 -26 70 -75 83 -128 l6 -28 -205 0 -205 0 15 38 c23 55 66 103
116 130 57 31 132 26 190 -12z"/>
<path d="M3943 1106 c-190 -62 -311 -264 -275 -458 52 -282 360 -431 566 -273
49 37 50 37 61 -12 l7 -33 69 0 69 0 0 385 0 385 -68 0 -69 0 -12 -41 -12 -41
-27 25 c-71 66 -211 95 -309 63z m194 -147 c86 -42 136 -132 136 -245 0 -271
-301 -364 -420 -130 -110 215 85 472 284 375z"/>
<path d="M6944 1111 c-106 -26 -206 -111 -257 -219 -30 -63 -32 -74 -32 -177
0 -105 2 -114 33 -177 43 -88 106 -152 190 -191 59 -28 77 -32 152 -31 72 0
93 4 135 26 28 14 59 35 69 47 26 29 33 27 43 -17 l9 -37 67 -3 67 -3 0 386 0
386 -67 -3 -68 -3 -9 -36 -9 -37 -44 34 c-72 55 -184 77 -279 55z m169 -147
c119 -60 177 -213 131 -347 -21 -63 -84 -131 -139 -153 -144 -55 -295 71 -295
245 0 119 47 208 132 250 52 25 126 28 171 5z"/>
<path d="M7854 1106 c-22 -7 -58 -25 -80 -40 -36 -24 -40 -25 -51 -9 -7 9 -13
23 -13 30 0 9 -18 13 -65 13 l-65 0 0 -385 0 -385 74 0 75 0 3 263 3 264 29
37 c36 48 79 74 134 82 84 13 165 -29 191 -99 7 -17 11 -129 11 -288 l0 -259
76 0 75 0 -3 288 -3 288 -30 59 c-19 37 -46 72 -73 92 -76 58 -195 78 -288 49z"/>
<path d="M8693 1106 c-190 -62 -311 -264 -275 -458 17 -93 63 -178 127 -237
76 -69 146 -95 255 -95 75 -1 93 3 152 31 59 28 159 112 157 131 0 4 -23 26
-50 49 l-49 42 -49 -49 c-74 -74 -155 -89 -247 -46 -192 89 -192 393 0 482 86
40 167 27 240 -37 l42 -37 52 39 c44 34 51 43 42 59 -15 28 -79 78 -139 107
-65 32 -190 41 -258 19z"/>
<path d="M9505 1107 c-127 -43 -211 -127 -255 -258 -18 -52 -21 -81 -18 -155
3 -78 9 -101 36 -156 80 -163 264 -253 447 -219 71 13 171 60 205 96 l24 26
-46 46 -46 46 -35 -28 c-93 -70 -234 -72 -327 -3 -37 27 -90 104 -90 130 0 17
16 18 286 18 l286 0 -7 63 c-28 261 -142 395 -343 404 -46 2 -93 -3 -117 -10z
m206 -161 c38 -26 70 -75 83 -128 l6 -28 -205 0 -205 0 15 38 c23 55 66 103
116 130 57 31 132 26 190 -12z"/>
<path d="M10412 1107 c-18 -5 -52 -27 -76 -48 l-43 -38 -16 39 -15 40 -61 0
-61 0 0 -385 0 -385 74 0 74 0 4 254 3 254 30 44 c42 59 104 92 175 92 30 1
62 -3 71 -7 12 -6 19 4 32 52 23 82 22 88 -14 95 -46 9 -139 6 -177 -7z"/>
<path d="M3370 715 l0 -385 80 0 80 0 0 108 c0 59 -3 232 -7 385 l-6 277 -74
0 -73 0 0 -385z"/>
</g>
</svg>
